<svg width="320" height="150" viewBox="0 0 320 150" fill="none" xmlns="http://www.w3.org/2000/svg">
<g clip-path="url(#clip0_1168_191)">
<path d="M134.156 82.8211C134.156 87.1462 130.025 90.164 124.105 90.164C118.921 90.164 115.621 88.057 113.765 86.2926L113.302 85.8516L115.663 83.5732L116.085 83.9825C118.182 85.9975 121.028 87.105 124.102 87.105C127.982 87.105 130.491 85.4803 130.491 82.9607C130.491 80.4412 128.683 79.6193 125.729 78.5055L121.37 76.8745C119.479 76.1605 115.054 74.485 115.054 70.1218C115.054 66.1616 118.943 63.293 124.305 63.293C127.636 63.293 130.793 64.4417 132.96 66.444L133.432 66.8819L131.208 69.0492L130.783 68.6811C129.007 67.1358 126.827 66.352 124.305 66.352C120.91 66.352 118.715 67.7641 118.715 69.9504C118.715 72.3494 121.243 73.2823 123.277 74.0312L127.639 75.6623C130.793 76.8554 134.156 78.4928 134.156 82.8211Z" fill="black"/>
<path d="M159.057 63.7305V79.4253C159.057 86.3493 155.288 90.1604 148.445 90.1604C141.602 90.1604 137.874 86.3493 137.874 79.4253V63.7305H141.497V79.3238C141.497 84.4867 143.835 87.1014 148.445 87.1014C153.055 87.1014 155.552 84.4835 155.552 79.3238V63.7305H159.054H159.057Z" fill="black"/>
<path d="M185.26 63.7305V89.7193H181.849L169.787 72.4029L167.528 68.9885C167.528 69.0171 167.528 69.0488 167.535 69.0806C167.636 70.7497 167.741 72.4728 167.741 74.2625V89.7193H164.238V63.7305H167.646L179.749 81.0088L181.951 84.4041C181.843 82.6208 181.754 80.812 181.754 79.016V63.7305H185.257H185.26Z" fill="black"/>
<path d="M209.492 67.2083C207.084 64.9014 203.563 63.7305 199.029 63.7305H191.539V89.7193H199.07C207.925 89.7193 213.001 84.9531 213.001 76.6424C213.001 72.6155 211.821 69.4391 209.492 67.2115V67.2083ZM195.159 66.6499H198.788C205.638 66.6499 209.258 70.1055 209.258 76.6392C209.258 81.2563 207.44 86.765 198.788 86.765H195.159V66.6499Z" fill="black"/>
<path d="M235.222 86.7301V89.7193H217.439V63.7305H234.784V66.6848H221.063V74.4973H232.62V77.4547H221.063V86.7301H235.222Z" fill="black"/>
<path d="M252.008 78.2068C256.367 77.3469 258.845 74.748 258.845 70.9655C258.845 64.9839 253.227 63.7305 248.512 63.7305H239.381V89.7193H243.001V78.5432H248.03L255.79 89.7193H259.997L252.005 78.21L252.008 78.2068ZM243.004 66.6499H247.954C251.529 66.6499 255.184 67.1639 255.184 70.9655C255.184 74.053 252.751 75.6206 247.954 75.6206H243.004V66.6499Z" fill="black"/>
<path d="M63.7367 73.7493H61.4365L61.4492 73.5335C62.1979 61.8941 71.9188 52.7773 83.5844 52.7773C95.2501 52.7773 104.971 61.8941 105.72 73.5335L105.736 73.7493H103.432L103.416 73.5589C102.69 63.1951 93.9779 55.0748 83.5844 55.0748C73.191 55.0748 64.4822 63.1951 63.7525 73.5589L63.7398 73.7493H63.7367Z" fill="black"/>
<path d="M63.9336 85.3926H103.185L103.017 85.694C102.652 86.3604 102.236 87.03 101.78 87.6868L101.719 87.7757H65.3993L65.3391 87.6868C64.8822 87.03 64.4634 86.3604 64.0986 85.694L63.9336 85.3926Z" fill="black"/>
<path d="M73.7273 94.9473H93.3879L92.4996 95.3376C89.6696 96.5878 86.6588 97.2193 83.556 97.2193C80.4532 97.2193 77.4456 96.5847 74.6124 95.3376L73.7241 94.9473H73.7273Z" fill="black"/>
<path d="M62.0869 80.6133H105.031L104.961 80.8703C104.774 81.5526 104.559 82.2221 104.317 82.8631L104.267 82.9964H62.8483L62.8007 82.8631C62.5565 82.2221 62.3407 81.5494 62.1567 80.8703L62.0869 80.6133Z" fill="black"/>
<path d="M67.3379 90.1699H99.7809L99.4446 90.519C98.7561 91.2234 98.0074 91.8962 97.2206 92.5118L97.1667 92.5562H69.9521L69.8982 92.5118C69.1114 91.8962 68.3626 91.2266 67.6742 90.519L67.3379 90.1699Z" fill="black"/>
<path d="M61.3892 75.8379H105.729L105.72 76.0505C105.691 76.6915 105.631 77.361 105.536 78.0433L105.514 78.221H61.6049L61.5795 78.0433C61.4875 77.361 61.4272 76.6915 61.3987 76.0505L61.3892 75.8379Z" fill="black"/>
</g>
<defs>
<clipPath id="clip0_1168_191">
<rect width="198.611" height="44.4444" fill="white" transform="translate(61.3892 52.7773)"/>
</clipPath>
</defs>
</svg>
